Coordinates
version=1
nRows=26
nColumns=24
inDegrees=yes

Units are S.I. units (second, meters, Newtons, ...)
Angles are in degrees.

endheader
time	pelvis_tilt	pelvis_list	pelvis_rotation	pelvis_tx	pelvis_ty	pelvis_tz	hip_flexion_r	hip_adduction_r	hip_rotation_r	knee_angle_r	ankle_angle_r	subtalar_angle_r	mtp_angle_r	hip_flexion_l	hip_adduction_l	hip_rotation_l	knee_angle_l	ankle_angle_l	subtalar_angle_l	mtp_angle_l	lumbar_extension	lumbar_bending	lumbar_rotation
      1.04400000	     -0.03586812	     -3.24871679	     -2.56178009	     -0.14228700	      0.98030397	      0.32586148	    -14.79090531	      7.18030055	     -1.02141973	     -9.27722593	     13.12949500	     -4.95461098	     -1.54718448	     21.99540757	     -1.72759123	     -5.07804534	      1.29158430	     -1.82677815	     -2.08436131	      1.48419571	     -2.29071282	      6.95679360	      6.43155725
      1.04816667	     -0.08674313	     -3.16407446	     -2.61506541	     -0.13644741	      0.97967273	      0.32569656	    -14.82189601	      7.04732459	     -0.98507661	     -9.79588339	     13.16712705	     -4.99390238	     -1.48399749	     21.99915844	     -1.59784914	     -5.07633558	      1.24486640	     -2.06494399	     -2.32219610	      1.55380122	     -2.20697823	      6.83090430	      6.50150253
      1.05233333	     -0.12657868	     -3.08786574	     -2.65807384	     -0.13061355	      0.97910028	      0.32551042	    -14.84140334	      6.92408867	     -0.96936825	    -10.35060539	     13.13115813	     -5.04065330	     -1.36264915	     22.00947729	     -1.47536734	     -5.02646114	      1.09573053	     -2.32608300	     -2.70198718	      1.70121342	     -2.13980805	      6.74625551	      6.54878127
      1.05650000	     -0.17682266	     -2.98949776	     -2.68809880	     -0.12472100	      0.97857458	      0.32532345	    -14.84630069	      6.78477302	     -0.94436598	    -10.90950386	     13.06474528	     -5.15443159	     -1.23560727	     22.05680536	     -1.33351950	     -5.01877455	      0.82993039	     -2.60659715	     -3.01800254	      1.86193341	     -2.04190963	      6.61060584	      6.54849357
      1.06066667	     -0.23189524	     -2.88122457	     -2.71303236	     -0.11880995	      0.97809498	      0.32513108	    -14.82441486	      6.63815119	     -0.91554595	    -11.50629353	     12.95981116	     -5.29754424	     -1.08263150	     22.11841928	     -1.18339744	     -4.97991507	      0.48829871	     -2.91222878	     -3.39720454	      2.05612858	     -1.93853619	      6.46794256	      6.54895564
      1.06483333	     -0.24047698	     -2.74971959	     -2.72690407	     -0.11282992	      0.97773421	      0.32494818	    -14.84468011	      6.46739481	     -0.91038427	    -12.11249631	     12.78305079	     -5.45318087	     -1.03433623	     22.15091735	     -1.01459307	     -5.02482623	      0.04687774	     -3.18506578	     -3.62831194	      2.11833182	     -1.87049965	      6.26929698	      6.53154183
      1.06900000	     -0.35093665	     -2.64237971	     -2.71697925	     -0.10689214	      0.97727815	      0.32470537	    -14.72476409	      6.33793528	     -0.87735443	    -12.77405115	     12.65855637	     -5.64109931	     -0.88998993	     22.30695015	     -0.85987821	     -4.89107886	     -0.45206462	     -3.60147647	     -4.16560010	      2.29363122	     -1.70217485	      6.14152815	      6.51261102
      1.07316667	     -0.40323434	     -2.51672493	     -2.69759733	     -0.10089946	      0.97695285	      0.32446010	    -14.65050056	      6.18631753	     -0.87910182	    -13.45999655	     12.44651268	     -5.83407508	     -0.70800091	     22.40067237	     -0.68590799	     -4.78888803	     -0.99406655	     -4.01425344	     -4.66515786	      2.50598776	     -1.58332237	      5.96968360	      6.46845378
      1.07733333	     -0.42490798	     -2.35408756	     -2.68520925	     -0.09484626	      0.97672525	      0.32422933	    -14.58194922	      5.98867203	     -0.90395973	    -14.19447166	     12.16200620	     -6.03292563	     -0.62156757	     22.46722465	     -0.48360029	     -4.76832455	     -1.59219036	     -4.35112353	     -4.97751130	      2.60129399	     -1.50424937	      5.73914777	      6.43611830
      1.08150000	     -0.52468276	     -2.22747175	     -2.63870586	     -0.08882429	      0.97643386	      0.32393874	    -14.40425429	      5.84688113	     -0.90940676	    -14.96811514	     11.88295865	     -6.25336700	     -0.45095730	     22.63308066	     -0.30410353	     -4.60776436	     -2.23328994	     -4.80963428	     -5.52909048	      2.76877853	     -1.32886309	      5.56975853	      6.37798254
      1.08566667	     -0.54397072	     -2.09457850	     -2.58165775	     -0.08275599	      0.97629443	      0.32361851	    -14.29064442	      5.68254178	     -1.00226020	    -15.76096164	     11.43494707	     -6.43012878	      3.45400523	     22.70928638	     -0.11318638	     -4.45464186	     -2.89269206	     -5.30541126	     -6.13830049	      6.10809797	     -1.24110516	      5.39700926	      6.32821384
      1.08983333	     -0.62276053	     -1.95704458	     -2.52778933	     -0.07668297	      0.97614058	      0.32332472	    -14.08125431	      5.53067347	     -1.00998979	    -16.62390313	     11.09179534	     -6.71102901	      3.50986891	     22.86861743	      0.07113480	     -4.36132281	     -3.61462189	     -5.74376166	     -6.54815385	      6.07989762	     -1.07996651	      5.20516266	      6.23952114
      1.09400000	     -0.69347447	     -1.81632842	     -2.46416321	     -0.07060004	      0.97604352	      0.32299909	    -13.84422226	      5.37059730	     -1.05565295	    -17.53941166	     10.64212115	     -6.95203136	      3.61494969	     23.00424854	      0.26683680	     -4.19367676	     -4.32603985	     -6.16319895	     -7.03272439	      6.05793373	     -0.93156731	      5.01816152	      6.15277433
      1.09816667	     -0.75173277	     -1.66930260	     -2.38643523	     -0.06449122	      0.97600894	      0.32265345	    -13.59253029	      5.20316499	     -1.12895465	    -18.49470027	     10.12930735	     -7.16854284	      3.74862679	     23.12576697	      0.47265874	     -4.03221807	     -5.04995748	     -6.58033472	     -7.47119709	      6.04199987	     -0.79083646	      4.81349868	      6.06634967
      1.10233333	     -0.81483314	     -1.52141276	     -2.30697220	     -0.05837880	      0.97601839	      0.32229037	    -13.29564491	      5.03071635	     -1.21332672	    -19.51215239	      9.56216159	     -7.38855915	      3.92558960	     23.24652995	      0.68031241	     -3.85793925	     -5.77634118	     -6.97184890	     -7.90332010	      6.02780948	     -0.64495156	      4.61606968	      5.97583122
      1.10650000	     -0.86773832	     -1.36363409	     -2.22157625	     -0.05225108	      0.97608535	      0.32190981	    -12.97566006	      4.84339685	     -1.31715503	    -20.57847892	      8.92922299	     -7.59879937	      4.14875337	     23.34733216	      0.90071262	     -3.68199170	     -6.49697564	     -7.33672151	     -8.30810736	      6.01258552	     -0.50693993	      4.40363221	      5.87846948
      1.11066667	     -0.92610454	     -1.20359568	     -2.12285515	     -0.04612773	      0.97618260	      0.32150890	    -12.61838601	      4.65547788	     -1.42592900	    -21.68718587	      8.26955086	     -7.80104715	      4.55867880	     23.46218195	      1.12947409	     -3.49578253	     -7.24510532	     -7.66213908	     -8.76407439	      5.98632042	     -0.36341904	      4.17805506	      5.76087722
      1.11483333	     -0.88784586	     -1.00800907	     -2.00342090	     -0.03995315	      0.97644683	      0.32102553	    -12.33233981	      4.39971593	     -1.66371951	    -22.82378283	      7.36142029	     -7.98911966	     10.39711180	     23.41647930	      1.41415834	     -3.24739732	     -7.89102721	     -7.93930418	     -9.14801396	      5.61550992	     -0.33549439	      3.92127921	      5.66345811
      1.11900000	     -0.95254758	     -0.84099585	     -1.94215499	     -0.03383492	      0.97663659	      0.32066435	    -11.87988454	      4.18624037	     -1.74894327	    -24.06246769	      6.54607587	     -8.21819876	     10.44053938	     23.51284681	      1.62555227	     -3.17365785	     -8.60846413	     -8.17340271	     -9.32839618	      5.61044917	     -0.17707238	      3.70366676	      5.59135087
      1.12316667	     -0.99050038	     -0.66833819	     -1.84923797	     -0.02771899	      0.97688814	      0.32023783	    -11.42812210	      3.96209982	     -1.88782497	    -25.33132622	      5.64114206	     -8.41040280	     10.52393287	     23.56228070	      1.86449359	     -3.01393058	     -9.29752373	     -8.35120181	     -9.58834328	      5.59812047	     -0.05697359	      3.47539931	      5.49958319
      1.12733333	     -0.99224692	     -0.47971476	     -1.75386751	     -0.02160211	      0.97721640	      0.31978927	    -10.98228957	      3.70946537	     -2.04941613	    -26.64247407	      4.66753014	     -8.57552309	     10.63147540	     23.55216944	      2.12432349	     -2.85680999	     -9.95309465	     -8.48206826	     -9.82791190	      5.58001134	      0.02150330	      3.22648336	      5.40690163
      1.13150000	     -1.01651398	     -0.29725950	     -1.65653497	     -0.01551874	      0.97754953	      0.31932627	    -10.47277536	      3.45748917	     -2.21455181	    -28.00254182	      3.62536479	     -8.72410282	     10.79675722	     23.55465683	      2.38122667	     -2.68181255	    -10.59017984	     -8.58314176	    -10.09357933	      5.54931542	      0.12351103	      2.99285845	      5.30220568
      1.13566667	     -0.95486673	     -0.05667991	     -1.56803960	     -0.00940838	      0.97804211	      0.31881431	    -10.03289333	      3.11466045	     -2.42069464	    -29.37655363	      2.46736775	     -8.84214584	     14.57584508	     23.40073876	      2.71533008	     -2.46132503	    -11.10389351	     -8.74918729	    -10.57297412	      4.82615601	      0.11960079	      2.68397714	      5.06410891
      1.13983333	     -0.98772974	      0.12507662	     -1.46451746	     -0.00337115	      0.97840139	      0.31833981	     -9.44698860	      2.85189926	     -2.59464222	    -30.81998115	      1.31452285	     -9.03467871	     14.62854734	     23.40053955	      2.96761874	     -2.33218067	    -11.73362068	     -8.63394221	    -10.59351275	      4.82393443	      0.23269849	      2.45222261	      5.08239808
      1.14400000	     -1.01562390	      0.32320405	     -1.36348220	      0.00262545	      0.97878766	      0.31783556	     -8.83255495	      2.56126917	     -2.76636785	    -32.30422385	      0.14785605	     -9.24587373	     14.99581232	     23.36580143	      3.24875846	     -2.16477635	    -12.30229007	     -8.59350136	    -10.82464493	      4.75078539	      0.33391169	      2.20104842	      4.95959103
      1.14816667	     -0.95927338	      0.53976296	     -1.28302519	      0.00863676	      0.97933471	      0.31734951	     -8.29919131	      2.23570519	     -2.92523358	    -33.77099951	     -1.17549062	     -9.37052536	     15.06526605	     23.19815296	      3.54064520	     -2.05344448	    -12.79773700	     -8.46223884	    -10.92745714	      4.73523501	      0.33420040	      1.93594242	      4.91254614
